<?xml version="1.0" encoding="UTF-8"?>
<svg id="_3-1-09" data-name="3-1-09" xmlns="http://www.w3.org/2000/svg" viewBox="0 0 841 595">
  <defs>
    <style>
      .cls-1 {
        fill: #eae6ff;
      }

      .cls-2 {
        fill: #fc9599;
      }

      .cls-3 {
        fill: #fff;
      }

      .cls-4 {
        fill: #ffadaf;
      }

      .cls-5 {
        fill: #8a7db5;
      }

      .cls-6 {
        fill: #c9b8ff;
      }

      .cls-7 {
        fill: #12665a;
      }

      .cls-8 {
        fill: #241f3f;
      }

      .cls-9 {
        fill: #1daa99;
      }

      .cls-10 {
        fill: #1dc9b7;
      }

      .cls-11, .cls-12 {
        fill: #43395b;
      }

      .cls-13 {
        fill: #1a8777;
      }

      .cls-14 {
        fill: #58e8d7;
      }

      .cls-15 {
        stroke: #241f3f;
        stroke-width: .94px;
      }

      .cls-15, .cls-16, .cls-17 {
        fill: none;
        stroke-miterlimit: 10;
      }

      .cls-16 {
        stroke: #fff;
        stroke-width: 2.65px;
      }

      .cls-16, .cls-17 {
        stroke-linecap: round;
      }

      .cls-17 {
        stroke: #2ab5a4;
        stroke-width: 2.71px;
      }

      .cls-12 {
        font-family: MyriadPro-Bold, 'Myriad Pro';
        font-size: 99.87px;
        font-weight: 700;
      }

      .cls-18 {
        fill: #9f93db;
        opacity: .68;
      }
    </style>
  </defs>
  <path class="cls-18" d="m266.37,535.53h449.53s-5.91-106.95-92.6-103.74c-86.69,3.22-70.19-151.62-280.38-154.26-124.8-1.57-176.19,63.19-197.35,116.07-11.1,27.72-15.47,56.67-13.58,85.53l3.7,56.4h130.67"/>
  <g>
    <path class="cls-7" d="m289.74,505.99c.38-16.56-35.38-29.6-54.03-36.4-49.61-18.09-130.3-1.3-130.3-1.3,0,0,31.76,61.39,76.87,72.26,49.85,12.01,106.99-13.81,107.46-34.56Z"/>
    <path class="cls-13" d="m268.88,511.07c-19.1,13.07-61.63-18.85-83.81-35.5-59-44.28-100.86-151.56-100.86-151.56,0,0,96.08-9.62,143.2,34.9,52.07,49.2,65.4,135.78,41.47,152.16Z"/>
    <path class="cls-17" d="m130.89,352.07c15.9,6.23,33.48,14.59,51.68,25.91,49.6,30.86,80.86,69.51,99.13,97.05"/>
    <path class="cls-17" d="m153.21,423.86c5-4.2,11.83-9.01,20.64-12.87,19.72-8.65,37.91-7.58,47.12-6.35"/>
    <path class="cls-17" d="m173.87,428.6c4.92-2.5,10.49-4.99,16.67-7.23,11.92-4.32,22.89-6.57,32.04-7.74"/>
    <path class="cls-17" d="m174.77,343.96c2.33,3.13,6.11,9.1,7.77,17.52,1.38,7.01.73,12.89.04,16.5"/>
  </g>
  <g>
    <path class="cls-7" d="m332.17,300.1c.36,16.18,35.84,27.33,54.34,33.14,49.21,15.46,127.23-4.49,127.23-4.49,0,0-33.71-58.51-78.22-67.13-49.18-9.52-103.81,18.21-103.36,38.47Z"/>
    <path class="cls-13" d="m323.7,281.64c12.63,4.76,80.96,29.29,148.67.26,76.17-32.65,92.34-131.18,92.34-131.18,0,0-73.08,9.3-241.01,130.92Z"/>
    <path class="cls-10" d="m311.58,270.05c13.91,1.05,88.88,5.35,151.44-50.3,70.38-62.6,65.19-178.8,65.19-178.8,0,0-72.37,35.32-216.63,229.1Z"/>
    <path class="cls-16" d="m303.6,259.15c21.4-4.3,60.08-15.03,99.07-44.46,44.76-33.79,66.4-74.46,75.58-94.83"/>
    <path class="cls-16" d="m464.95,196.82c-3.92,1.43-8.59,2.78-13.92,3.65-11.62,1.91-21.57.78-28.42-.64"/>
    <path class="cls-16" d="m450.02,166.83c-1.77-2.76-3.49-6.02-4.73-9.73-2.71-8.09-2.03-14.93-.87-19.63"/>
    <path class="cls-16" d="m459.94,184.75c-3.24,1.89-8.75,4.53-16.04,5.42-4.95.6-9.19.2-12.25-.34"/>
  </g>
  <ellipse class="cls-8" cx="480.83" cy="210.35" rx="9.12" ry="11.41"/>
  <g>
    <path class="cls-11" d="m404.34,535.17l-137.97.36c-19.05.04-34.58-15.28-34.8-34.34l-1.12-319.13c0-19.03,15.31-34.52,34.34-34.74l137.98-.36c19.05-.04,34.58,15.28,34.8,34.34l1.11,319.13c.05,18.9-15.36,34.99-34.34,34.74Z"/>
    <polygon class="cls-5" points="437.81 277.51 231.59 399.1 231.22 370.21 437.73 246.58 437.81 277.51"/>
    <polygon class="cls-5" points="437.91 313.97 231.41 440.81 231.37 425.64 437.89 304.06 437.91 313.97"/>
    <path class="cls-1" d="m406.08,526.13l-140.91.36c-12.4.03-22.48-10-22.51-22.4h0s-1.14-324.65-1.14-324.65c-.02-12.4,10-22.47,22.4-22.51l140.91-.37c12.38-.02,22.45,9.97,22.51,22.35l1.14,324.65c.26,12.21-9.43,22.32-21.64,22.58-.26,0-.51,0-.77,0Z"/>
    <path class="cls-11" d="m370.19,173.55l-71.41.17c-7.76,0-13.69-4.62-13.36-10.46l-.39-9.91,98.41-.25.4,9.91c-.41,5.82-5.95,10.79-13.65,10.54Z"/>
    <path class="cls-11" d="m376.59,516.57l-81.39.21c-1.1-.05-1.99-.93-2.06-2.03h0c.05-1.11.94-2,2.04-2.06l81.39-.2c1.1.05,1.99.93,2.04,2.03h0c.29,1.46-.87,2.04-2.03,2.04Z"/>
  </g>
  <path class="cls-4" d="m510.28,215.11c-.54,13.33-4.08,22.84-13.33,24.29-9.24,1.45-14,.7-20.14-19.02-3.6-11.56,4.08-22.84,13.33-24.29,9.24-1.45,20.63,6.93,20.14,19.02Z"/>
  <rect class="cls-4" x="494.7" y="219.77" width="19.4" height="31.16" transform="translate(-44.03 140.3) rotate(-15.18)"/>
  <path class="cls-4" d="m551.59,328.47l-48.18,11.36-27.78-70.06c-.77-2.07-3.23-9.45.36-15.98,2.47-4.49,6.81-6.79,11.49-9.27,3.35-1.77,6.34-2.81,8.45-3.42,6.12-1.73,12.24-3.47,18.36-5.2,1.94.53,5.04,1.32,8.89,2.06,9.51,1.83,12.78,1.27,15.33,2.27,4.51,1.77,9.06,9.3,8.05,36.03,1.68,17.41,3.36,34.81,5.03,52.22Z"/>
  <path class="cls-4" d="m532.35,345.35c-9.5-6.36-15.47-6.21-19.13-4.98-20.09,6.75-19.33,62.58-18.82,99.87.39,28.37,3.43,27.51,2.75,47.2-.36,10.53,2.86,20.87,3.92,31.35.24,2.35.73,7.47,3.24,8.18,2.03.58,4.47-2,5.6-3.34,4.78-25.98,9.62-62.69-1.33-85.86,14.78-27.07,15.14-64.89,23.77-92.42Z"/>
  <path class="cls-4" d="m602.15,484.66c-21.44-39.43-30.25-45.71-34.68-48.45-6.07-12.99-10.08-44.6-12.26-61.12.27-64-65.88-31.31-9.94,64.29,6.62,19.61,10.6,20.99,32.1,38.38,30.67,23.31,38.1,33.17,24.78,6.9Z"/>
  <path class="cls-4" d="m501.24,317.42c-2.22,6.65,3.03,9.82,2.17,22.42-.82,11.95-6.17,14.5-5.04,20.66,2.6,14.09,35.75,28.49,50.77,16.42,12.75-10.25,6.18-34.54,2.44-48.44-2.6-9.65-4.63-16.79-11.33-21.1-13.05-8.41-35.44-.7-39.02,10.04Z"/>
  <ellipse class="cls-4" cx="470.67" cy="282.57" rx="35.12" ry="9.93" transform="translate(38.32 620.87) rotate(-69.02)"/>
  <path class="cls-4" d="m467.45,310.89c-2.65,9.76-8.77,17.02-32.5,37.93-10.41,9.17-11.12,9.44-11.65,9.11-4.1-2.51,10.15-36.49,31.75-52.2,2.61-1.9,9.4-6.84,12.22-4.79,2.4,1.75.76,7.78.18,9.95Z"/>
  <ellipse class="cls-4" cx="551.58" cy="272.5" rx="10.21" ry="36.09" transform="translate(-63.63 275.74) rotate(-26.59)"/>
  <path class="cls-4" d="m579.19,321.57c3.41,19.7-.35,39.02-3.27,39.12-2.22.07-1.14-11.16-8.62-30.22-5.08-12.93-10.04-19.15-9.07-30.16.07-.75,1.13-11.9,4.94-12.48,5.05-.77,13.16,17.24,16.02,33.75Z"/>
  <path class="cls-8" d="m488.54,500.33s14.37,8.01,30.16,1.43v-8.22s-1.64-3.89-2.71-6.4c-1.07-2.51,1.23-28.31-1.72-38.41s-.25-10.34-.25-10.34c0,0-3.2-1.48-1.72-3.2,1.48-1.72,1.72-2.46,1.97-4.68s9.53-28.95,9.85-35.82c4.5,14.7,21.69,68.78,54.63,89.27-1.08,1.6,3.48,4.16,3.48,4.16,0,0,16.04-7.84,16.95-13.49-2.55-4.19-3.65-4.56-3.65-4.56,0,0-20.24-32.09-25.89-34.64.55-2.26-1.82-1.46-1.82-1.46l.36-2.73s-2.36,1.46-2.55-1.28-8.99-59.98-8.99-59.98c0,0,5.52-11.56-3.41-40.74-20.88.91-53.41,7.65-53.41,7.65,0,0,.91,8.93-.73,14.95-1.64,6.02-14.77,35.37-12.21,79.12s2.92,58.34,2.92,58.34l-1.25,2.19v8.84Z"/>
  <path class="cls-8" d="m503.83,520.15s-5.43-7.08-8.91,0c-3.49,7.08-8.33,8-8.33,8,0,0-8.91-1.38-11.24,4.62-.97,2.76-1.36,4-1.36,4,0,0,5.81,3.08,27.71,0,10.66-3.08,14.73-3.23,14.73-3.23l-4.96-18.87s-3.56,5.79-7.63,5.48Z"/>
  <path class="cls-8" d="m595.26,494.5c-.09-.17-1.5-2.84-.56-3.94.86-1,3.62-.69,6.47,1.56.77-1.14,1.08-2.15,1.21-2.9.26-1.5-.4-6.08-.23-4.57h0l14.31,8.23s2.34,2.52-4.13,10.42c-.07,3.3-.7,8.27-3.57,13.26-1.46,2.54-3.6,6.25-7.9,7.71-1.71.58-3.69,1.25-5,.3-2.77-2.01.95-8.8.86-19.24-.04-4.55-.79-8.29-1.46-10.83Z"/>
  <path class="cls-10" d="m448.68,311.08l.95-3.48c.2-.75.88-1.26,1.65-1.26h1.07s-1.19-3.96,0-3.3.85-.24.93-1.44,1.97-7.63,1.97-7.63c0,0,11.7-40.78,30.04-48.83,6.58-3.18,7.53-3,7.53-3,0,0,.77,14.99,9.16,18.77,12.33-19.73,9.2-19.87,16.28-23.99,8.68,1.03,17.64,1.97,21.32,3.73s16.17,9.14,29.75,47.23c1.13.42,1.31,2.5,1.31,2.5l-.24,2.55-.77.59s.36-1.25-3.86.06c-4.22,1.31-9.48,3.28-9.44,4.76-1.69-.06-3.56-3.28-3.56-3.28l.1-.98-5.14-7.13,1.76,11.81s6.48,29.07,2.83,33.22-48.49,13.1-54.09,3.15c-5.59-9.95-14.95-43.93-17.08-50.1-3.62,8.58-10.47,21.35-10.47,21.35,0,0-.4.57,0,1.35s-1.3.28-1.16.78.14,1.63-.14,1.63-.81,2.48-.81,2.48l-2.46,4.24c-.18.31-.58.39-.86.18-1.87-1.41-8.55-5.97-16.55-5.94Z"/>
  <ellipse class="cls-4" cx="506.13" cy="216.31" rx="4.11" ry="5.96"/>
  <path class="cls-2" d="m505.92,231.54c.09,4.23-3.76,9.07-7.58,9.07s-5.24-.55-5.24-4.78,9.5-4.07,11.3-15.5c.2-1.29,1.39,5.41,1.52,11.22Z"/>
  <path class="cls-8" d="m474.25,212.32s11.28-7.33,19.91,0c8.63,7.33,11.49,1.83,11.49,1.83.19,5.24,1.78,8.74,3.07,10.84,1.06,1.72,3.15,4.54,4.05,4.15.82-.35.26-3.23-.04-5.04-2.31-14.07,1.89-20.4-2.39-24.43-1.14-1.07-3.32-2.4-7.73-2.22-1.7-1.18-6.29-4-12.57-3.79-2.3.08-9.47.32-13.63,6.15-3.74,5.25-2.43,11.35-2.15,12.5Z"/>
  <path class="cls-4" d="m510.02,215.36c0,3.24-1.6,5.87-3.57,5.87s-3.57-2.63-3.57-5.87,1.6-5.87,3.57-5.87,3.57,2.63,3.57,5.87Z"/>
  <ellipse class="cls-4" cx="421.52" cy="359.33" rx="8.51" ry="4.82" transform="translate(-130.62 403.31) rotate(-45)"/>
  <path class="cls-8" d="m504.37,210.14c-.71.07-1.89.31-2.6,1.23-.53.7-.58,1.49-.59,1.86-.13,4.77,1.42,11.61-.77,13.35-2.19,1.74-22.07-7.93-21.29,3.29,0,0-.39,11.48,6.32,11.87,6.63.38,12.47-1.54,15.22-4.39,3.51-3.63,5.17-9.04,4.8-13.49-.19-2.3-.95-4.65-1.11-9.72-.05-1.69-.02-3.08.01-4Zm-18.03,23.04c-1.63-.11-3.16-1.53-2.95-2.31.17-.65,1.56-.8,2.44-.9,1.31-.14,3.88-.12,4.1.77.22.84-1.67,2.56-3.59,2.44Z"/>
  <path class="cls-15" d="m485.92,199.57c-5.7-.17-7.79-.16-10.78,3.42-3.29,3.94-3.15,8.26,0,12.38"/>
  <rect class="cls-6" x="252.47" y="195.3" width="37.35" height="37.35" rx="12" ry="12"/>
  <rect class="cls-6" x="295.3" y="195.3" width="37.35" height="37.35" rx="12" ry="12"/>
  <rect class="cls-6" x="338.14" y="195.3" width="37.35" height="37.35" rx="12" ry="12"/>
  <rect class="cls-6" x="380.19" y="195.3" width="37.35" height="37.35" rx="12" ry="12"/>
  <rect class="cls-6" x="252.47" y="236.91" width="37.35" height="37.35" rx="12" ry="12"/>
  <rect class="cls-6" x="295.3" y="236.91" width="37.35" height="37.35" rx="12" ry="12"/>
  <rect class="cls-6" x="338.14" y="236.91" width="79.48" height="79.48" rx="12" ry="12"/>
  <rect class="cls-6" x="252.47" y="279.79" width="37.35" height="37.35" rx="12" ry="12"/>
  <rect class="cls-6" x="295.3" y="279.79" width="37.35" height="37.35" rx="12" ry="12"/>
  <path class="cls-4" d="m573.68,350.27s-5.75,3.24-6.71,6.48c-.97,3.24-2.43,8.91,0,8.91s1.4.46,1.25,4.4c-.15,3.93,3.84,2.31,10.04,0,6.2-2.31,5.02-27.07-4.58-19.78Z"/>
  <rect class="cls-10" x="261.72" y="372.94" width="180.96" height="118.18" rx="16.89" ry="16.89" transform="translate(-82.1 82.64) rotate(-12)"/>
  <path class="cls-14" d="m420.6,364.28l-47.76,65.66c-1.04,1.43-1.97,2.93-2.88,4.44-7.09,11.67-22.89,14.92-34.06,6.53l-74.57-43.19,159.27-33.44Z"/>
  <path class="cls-10" d="m261.33,394.49l47.76-65.66c1.04-1.43,1.97-2.93,2.88-4.44,7.09-11.67,22.89-14.92,34.06-6.53l74.57,43.19-159.27,33.44Z"/>
  <path class="cls-14" d="m261.33,397.71l47.76-65.66c1.04-1.43,1.97-2.93,2.88-4.44,7.09-11.67,22.89-14.92,34.06-6.53l74.57,43.19-159.27,33.44Z"/>
  <path class="cls-4" d="m424.48,351.55s-4.86-2.05-8.4.56-2.52,8.59-4.2,10.27,2.89.65,4.39-2.43,7.07-1.88,8.22-8.4Z"/>
  <path class="cls-9" d="m498.22,312.67s4.86,17.91,18.4,20.01c13.53,2.1,1.53-6.7,1.53-6.7l-8.11-5.76s13.64,12,6.58,10.8c-7.06-1.2-15.8-11.05-18.4-18.36Z"/>
  <path class="cls-9" d="m554.26,292.83s2.23-4.45,11.52-5.68c-9.13.71-10.45,1.84-11.52,5.68Z"/>
  <path class="cls-9" d="m453.64,306.69s9.96-.26,13.81,4.21c-2.22-5.18-11.43-5.07-13.81-4.21Z"/>
  <rect class="cls-3" x="274.9" y="345.87" width="128.07" height="47.43" transform="translate(-69.42 78.52) rotate(-12)"/>
  <polygon class="cls-3" points="281.99 409.68 327.05 435.77 376.19 425.33 407.19 382.72 404.01 367.76 278.67 394.07 281.99 409.68"/>
  <text class="cls-12" transform="translate(308.91 421.17) rotate(-12)"><tspan x="0" y="0">@</tspan></text>
  <path class="cls-9" d="m283.78,497.61l45.65-71.37c1.07-1.56,2.04-3.19,3.02-4.81,7.09-11.67,22.89-14.92,34.06-6.53l76.54,49.27-159.27,33.44Z"/>
  <path class="cls-10" d="m283.78,497.61l47.76-65.66c1.04-1.43,1.97-2.93,2.88-4.44,7.09-11.67,22.89-14.92,34.06-6.53l74.57,43.19-159.27,33.44Z"/>
  <path class="cls-8" d="m378.99,485.66l21.69-56.83c2.44-6.39,10.68-8.11,15.47-3.24l42.65,43.37c5.21,5.3,2.5,14.26-4.77,15.78l-64.34,13.46c-7.27,1.52-13.35-5.6-10.7-12.54Z"/>
  <path class="cls-3" d="m420.57,484.46c-3.24.68-5.99-1.28-6.67-4.52s1.12-6.15,4.42-6.84c3.3-.69,5.97,1.16,6.73,4.51.68,3.24-.99,6.13-4.36,6.83l-.12.03Zm-6.45-13.74l-7.28-27.94,9.85-2.06,4.53,28.52-7.1,1.49Z"/>
</svg>